<svg xmlns="http://www.w3.org/2000/svg" xmlns:xlink="http://www.w3.org/1999/xlink" width="121.438" height="80" viewBox="0 0 121.438 80"><defs><style>.a,.e{fill:#fff;}.b{fill:#e1251b;}.b,.c,.d,.e,.f{fill-rule:evenodd;}.c,.d{mix-blend-mode:multiply;isolation:isolate;}.c{fill:url(#a);}.d{fill:url(#b);}.f,.g{fill:#231f20;}</style><linearGradient id="a" x1="1" y1="0.5" x2="0" y2="0.5" gradientUnits="objectBoundingBox"><stop offset="0" stop-color="#e8e8e9"/><stop offset="1" stop-color="#898b8d"/></linearGradient><linearGradient id="b" x1="0" y1="0.5" x2="1" y2="0.5" xlink:href="#a"/></defs><g transform="translate(-532.459 -346.436)"><path class="a" d="M649.878,395.2a33.255,33.255,0,0,0-2.316-10.294c-.547-1.722-2.606-2.771-4.133-3.418-3.772-1.588-9.239-2.311-12.908-2.489a23.749,23.749,0,0,0,.8-15.739,2.042,2.042,0,0,0-.052-.223,19.841,19.841,0,0,0-18.447-13.923,15.344,15.344,0,0,0-2.781.25c-.206-.021-.413-.04-.618-.055a5.369,5.369,0,0,0-.69-.809,7.838,7.838,0,0,0-5.558-2.06h0a12.434,12.434,0,0,0-3.719.613,23.283,23.283,0,0,0-15.375,18.644,24.219,24.219,0,0,0,.744,10.066c.143.5.3,1.007.478,1.532.01.039.021.077.033.116a23.967,23.967,0,0,0,2.624,5.5c-8.381-1.681-16.939-3.155-25.4-3.155a66.921,66.921,0,0,0-15.311,1.539c-4.556,1.109-7.5,2.74-8.752,4.845a40.636,40.636,0,0,0-5.937,24.061,33.256,33.256,0,0,0,2.314,10.279c.41,1.342,1.738,2.441,4.151,3.444,4.372,1.844,11.124,2.515,14.594,2.515a110.143,110.143,0,0,0,13.009-.8,134.839,134.839,0,0,0,22.547-4.222l.2.041c9.978,2.055,20.295,4.179,30.479,4.179a67.175,67.175,0,0,0,15.307-1.531c4.55-1.1,7.5-2.728,8.757-4.827A40.693,40.693,0,0,0,649.878,395.2Z"/><path class="a" d="M648.451,413.491h-.061a5.411,5.411,0,1,0,.062,10.822h.071a5.515,5.515,0,0,0,3.868-1.653,5.42,5.42,0,0,0-3.94-9.169Z"/><path class="b" d="M645.781,385.551c-.162-.683-1.058-1.465-3.088-2.325-4.083-1.718-10.607-2.384-13.882-2.384l-2.335.027-.163.334,2.02.045a97.627,97.627,0,0,0-12.339.4,134.442,134.442,0,0,0-22.582,4.249l-.092.043c-10.357-2.139-20.557-4.292-30.753-4.292-11.694,0-20.465,2.141-22.438,5.459-10.521,17.56-3.462,32.735-3.462,32.735.157.686,1.031,1.479,3.09,2.335,4.073,1.718,10.61,2.37,13.869,2.37a107.719,107.719,0,0,0,12.808-.789,133.64,133.64,0,0,0,22.58-4.256l.11-.029c10.348,2.13,20.537,4.272,30.739,4.272,11.7,0,20.453-2.128,22.443-5.44C652.837,400.73,645.781,385.551,645.781,385.551Zm-45.948,1.69c-1.824-.352-3.628-.713-5.427-1.085C596.205,386.524,598.024,386.889,599.833,387.241Zm7.744,1.387c-2.063-.332-4.142-.7-6.2-1.085C603.45,387.929,605.514,388.3,607.577,388.628Z"/><path class="c" d="M574.035,416.634c-23.953-2.982-37.659,2.235-35.1,4.207,1.708,1.319,8.377,3.1,15.185,3.318a99.636,99.636,0,0,0,12.317-.4,133.64,133.64,0,0,0,22.58-4.256l.11-.029c-4.989-1.027-10.034-2.055-15.089-2.836"/><path class="d" d="M608.406,388.771c23.946,2.98,37.653-2.243,35.1-4.21-1.712-1.328-8.377-3.1-15.172-3.313a97.627,97.627,0,0,0-12.339.4,134.442,134.442,0,0,0-22.582,4.249l-.106.043c5.016,1.021,10.032,2.056,15.1,2.834"/><path class="e" d="M603.648,397.683a2.529,2.529,0,1,0-2.463-2.594,2.52,2.52,0,0,0,2.463,2.594"/><path class="e" d="M543.375,407.572a11.891,11.891,0,0,0,5.782,1.509c5.417.131,9-2.766,9.114-7.377.055-2.486-1.266-4.433-4.186-6.091-1.809-1.114-2.919-1.873-2.905-2.978.029-1.03.981-2.034,3.049-1.966a8.054,8.054,0,0,1,3.791,1.007.247.247,0,0,0,.219.028.241.241,0,0,0,.148-.126l1.364-3.427a.831.831,0,0,0-.342-.944,11.182,11.182,0,0,0-4.707-1.021c-5.083-.128-8.7,2.8-8.814,7.115-.082,3.136,2.44,4.973,4.367,6.1,2.034,1.169,2.71,1.933,2.683,2.968a2.064,2.064,0,0,1-.694,1.515,3.645,3.645,0,0,1-2.487.727,9.55,9.55,0,0,1-4.847-1.474.232.232,0,0,0-.214-.031.3.3,0,0,0-.168.132l-1.371,3.253a.792.792,0,0,0,.218,1.085"/><path class="e" d="M572.443,402.269l1.512-7.489c.082-.469-.161-.554-.361-.617a14.247,14.247,0,0,0-4.048-.719c-6.746-.184-9.974,5.234-10.1,10.371-.083,3.19,1.564,5.361,4.022,5.426a4.817,4.817,0,0,0,4.227-2.16l.036,0c.3,2.67,2.9,2.518,3.822,2.214a2.74,2.74,0,0,0,1.347-1.185c-1.3-.541-.913-2.44-.863-3.186.116-.959.26-1.895.408-2.657m-3.043-5.09-.652,3.313c-.7,3.706-2.269,5.216-3.481,5.18-1.111-.03-1.631-1.084-1.586-2.585.081-2.817,2.061-6.336,4.684-6.262a4.875,4.875,0,0,1,.876.1c.081.024.186.04.159.251"/><path class="e" d="M626.736,409.951l1.488-7.489a.468.468,0,0,0-.343-.633,15.045,15.045,0,0,0-4.053-.712c-6.761-.175-9.985,5.236-10.1,10.382-.085,3.2,1.568,5.354,4.017,5.434a4.858,4.858,0,0,0,4.228-2.166h.045c.315,2.671,2.9,2.509,3.8,2.213a2.7,2.7,0,0,0,1.358-1.184c-1.295-.56-.92-2.433-.864-3.191.114-.959.266-1.879.423-2.654m-3.065-5.1-.638,3.327c-.7,3.706-2.276,5.195-3.475,5.164-1.133-.023-1.64-1.064-1.6-2.574.067-2.832,2.063-6.336,4.677-6.277a4.559,4.559,0,0,1,.885.121c.083.035.182.04.15.239"/><path class="e" d="M584.417,395.971a5.281,5.281,0,0,0-4.293,2.072l-.064-.017,1.675-7.851c.115-.488-.047-1.075-.86-.842l-3.677,1.13s.285.284.18,1.122l-2.713,13.022a14.851,14.851,0,0,0-.368,2.792c-.1,2.713,1.508,4.319,4.772,4.386,6.148.166,9.233-5.432,9.354-10.385.067-2.722-1.15-5.362-4.006-5.429m-4.423,12.443a1.488,1.488,0,0,1-1.5-1.712,16.292,16.292,0,0,1,.453-2.944c.461-2.535,2.043-4.234,3.488-4.191,1.234.025,1.768,1.181,1.738,2.662-.087,2.667-1.836,6.25-4.176,6.185"/><path class="e" d="M599.138,399.9l-.728,3.419-.646-.137c-2.555-.5-3.851,1.822-4.415,4.7L592.5,412a1.346,1.346,0,0,0,.534,1.51l-3.612-.679a1.34,1.34,0,0,1-.941-1.727l1.494-7.267c.227-1.206.4-2.517.57-3.653a1.958,1.958,0,0,0-.213-1.44l2.787-.616c.269-.036,1.263-.314,1.218.771-.107,1.015-.2,1.606-.334,2.652l.083.005c1.008-1.806,2.539-2.949,4.383-2.635a.715.715,0,0,1,.665.979"/><path class="e" d="M613.2,400.678l-.165,0,.922-4.9c.158-.917-.737-.7-.868-.661l-3.711,1.171a1.683,1.683,0,0,1,.179,1.212l-.575,3.074-.807-.018-.6-.011a1.052,1.052,0,0,0-.981.956c-.135.964-.61,2.772-.61,2.772l1.792.044.5.012-2.057,10.614c-.078.543.032,1.369.975,1.4l3.6.086a1.077,1.077,0,0,1-.581-1.056l2.1-10.932h.269l1.783.046a1.3,1.3,0,0,0,1.021-.886c.187-.818.592-2.843.592-2.843l-2.776-.07"/><path class="e" d="M602.691,415.236l-3.6-.437a1.157,1.157,0,0,1-.952-1.49l2.314-11.387a1.942,1.942,0,0,0-.193-1.213l3.715-.824c.136-.023,1.022-.155.856.737l-2.724,13.5a1.229,1.229,0,0,0,.582,1.11"/><path class="e" d="M638.244,404.077a5.9,5.9,0,0,0-2.583-.523c-1.106.019-1.819.569-1.816,1.4.022.656.615,1.176,1.756,1.745,1.554.813,3.188,2.052,3.237,4.217.074,3.586-2.626,5.611-6.345,5.661a8.518,8.518,0,0,1-3.9-.869.68.68,0,0,1-.26-.787l.706-2.438c.013-.06.135-.268.309-.181a8.18,8.18,0,0,0,3.454.9c1.181-.045,1.779-.677,1.753-1.467-.019-.762-.478-1.275-1.793-1.968-1.637-.864-3.024-2.155-3.057-4.093-.083-3.223,2.448-5.427,6.055-5.511a8.828,8.828,0,0,1,3.168.505c.257.1.421.293.322.752l-.7,2.541c-.062.165-.248.13-.309.11"/><path class="f" d="M648.688,417.4a.382.382,0,0,0-.158,0h-.838l.024,1.265.736-.014c.513-.006.979-.044.969-.674-.009-.446-.354-.567-.733-.578m-.265,1.769,1.1,1.749.684-.005-1.173-1.774a1.056,1.056,0,0,0,1.033-1.131c-.008-.8-.5-1.147-1.447-1.134l-1.551.024.056,4.054.619-.019-.022-1.748.7-.016m0-3.2a2.93,2.93,0,1,0,2.871,2.889,2.85,2.85,0,0,0-2.871-2.889m-.011-.591a3.519,3.519,0,1,0,3.593,3.47,3.525,3.525,0,0,0-3.593-3.47"/><path class="a" d="M626.735,369.89a18.867,18.867,0,1,1-18.866-18.755,18.811,18.811,0,0,1,18.866,18.755"/><path class="g" d="M602.727,356.606a4.679,4.679,0,0,0-.617,2.28c.009.736.616,1.3,1.053.838a12.781,12.781,0,0,1,6.785-3.978c6.126-1.6,13.092,2.342,15.193,8.772l.017.052a17.78,17.78,0,0,1-33.728,11.248l.007,0c-.023-.059-.045-.12-.069-.18s-.039-.111-.057-.167l-.007,0c-.158-.408-.31-.822-.45-1.251-2.254-6.9.928-13.706,3.727-16.823a20.361,20.361,0,0,1,12.673-5.967c.634-.049,1.429-.338.158-1.582-.854-.835-3.2-2.313-7.387-.995a21.407,21.407,0,0,0-13.379,26.389c.154.541.32,1.064.495,1.574h-.006a22.168,22.168,0,0,0,42.307-13.243l.014-.005c-3.638-12.324-20.727-17.34-26.729-6.963"/><path class="f" d="M604.415,366.551a2.147,2.147,0,0,0-2.971-.564,2.12,2.12,0,0,0-.568,2.954,2.147,2.147,0,0,0,2.971.564,2.12,2.12,0,0,0,.568-2.954"/><path class="f" d="M612.893,363.813a2.146,2.146,0,0,0-2.971-.564,2.117,2.117,0,0,0-.568,2.953,2.147,2.147,0,0,0,2.971.565,2.12,2.12,0,0,0,.568-2.954"/><path class="b" d="M598.9,367.235a3.2,3.2,0,0,0-4.424-.84,3.155,3.155,0,0,0-.845,4.4,3.2,3.2,0,0,0,4.424.84,3.155,3.155,0,0,0,.845-4.4"/><path class="b" d="M619.616,360.545a3.2,3.2,0,0,0-4.424-.841,3.155,3.155,0,0,0-.845,4.4,3.2,3.2,0,0,0,4.424.841,3.155,3.155,0,0,0,.845-4.4"/><path class="f" d="M610.109,368.629a.665.665,0,0,0-.2-.188,2.97,2.97,0,0,0-4.205,1.291.648.648,0,0,0,.009.675.608.608,0,0,0,.985.036,2.74,2.74,0,0,1,1.22-.927,2.259,2.259,0,0,1,1.373-.007.773.773,0,0,0,.656-.033.612.612,0,0,0,.163-.847"/><path class="g" d="M620.92,365.649a13.523,13.523,0,0,1-10.991,17.607,13.835,13.835,0,0,1-1.946.139,13.6,13.6,0,0,1-12.87-9.21,32.74,32.74,0,0,0,25.807-8.536m.505-2.5-.025,0,0,.008a31.3,31.3,0,0,1-28.2,9.316,15.009,15.009,0,0,0,14.781,12.343,15.215,15.215,0,0,0,2.149-.153,14.916,14.916,0,0,0,11.293-21.516"/></g></svg>