<?xml version="1.0" encoding="utf-8"?>
<!-- Generator: Adobe Illustrator 21.0.2, SVG Export Plug-In . SVG Version: 6.00 Build 0)  -->
<svg version="1.1" id="Capa_1" xmlns="http://www.w3.org/2000/svg" xmlns:xlink="http://www.w3.org/1999/xlink" x="0px" y="0px"
	 viewBox="0 0 245.8 129.9" style="enable-background:new 0 0 245.8 129.9;" xml:space="preserve">
<style type="text/css">
	.st0{fill:#2F3479;}
	.st1{fill:url(#SVGID_1_);}
	.st2{fill:url(#SVGID_2_);}
	.st3{fill:url(#SVGID_3_);}
	.st4{fill:url(#SVGID_4_);}
	.st5{fill:url(#SVGID_5_);}
	.st6{fill:url(#SVGID_6_);}
	.st7{fill:url(#SVGID_7_);}
	.st8{fill:url(#SVGID_8_);}
	.st9{fill:url(#SVGID_9_);}
	.st10{fill:url(#SVGID_10_);}
	.st11{fill:url(#SVGID_11_);}
	.st12{fill:url(#SVGID_12_);}
	.st13{fill:url(#SVGID_13_);}
	.st14{fill:url(#SVGID_14_);}
	.st15{fill:url(#SVGID_15_);}
	.st16{fill:url(#SVGID_16_);}
	.st17{fill:url(#SVGID_17_);}
	.st18{fill:url(#SVGID_18_);}
	.st19{fill:url(#SVGID_19_);}
	.st20{fill:url(#SVGID_20_);}
	.st21{fill:url(#SVGID_21_);}
	.st22{fill:url(#SVGID_22_);}
	.st23{fill:url(#SVGID_23_);}
	.st24{fill:url(#SVGID_24_);}
	.st25{fill:url(#SVGID_25_);}
	.st26{fill:url(#SVGID_26_);}
	.st27{fill:url(#SVGID_27_);}
	.st28{fill:url(#SVGID_28_);}
	.st29{fill:url(#SVGID_29_);}
	.st30{fill:url(#SVGID_30_);}
	.st31{fill:url(#SVGID_31_);}
	.st32{fill:url(#SVGID_32_);}
	.st33{opacity:0.3;fill:url(#SVGID_33_);}
	.st34{opacity:0.3;fill:url(#SVGID_34_);}
	.st35{fill:#A3C04B;}
	.st36{fill:#899F47;}
	.st37{fill:#90AF4C;}
	.st38{fill:#7CB85B;}
	.st39{fill:#60954D;}
	.st40{fill:#8ECBE2;}
	.st41{fill:#70BED4;}
	.st42{fill:#6AB9D8;}
	.st43{fill:#5884C2;}
	.st44{fill:#4C4596;}
	.st45{fill:#493E92;}
	.st46{fill:#382F7B;}
	.st47{fill:#43358E;}
	.st48{fill:#8A4996;}
	.st49{fill:#A34392;}
	.st50{fill:#A2388F;}
	.st51{fill:#954092;}
	.st52{fill:#822A85;}
	.st53{fill:#B44C96;}
	.st54{fill:#AE4593;}
	.st55{fill:#E4B247;}
	.st56{fill:#D58937;}
	.st57{fill:#D48736;}
	.st58{fill:#C02341;}
	.st59{fill:#C1603E;}
	.st60{fill:#D05437;}
	.st61{fill:#F6E55E;}
	.st62{fill:#DFC438;}
	.st63{fill:#EAD745;}
	.st64{fill:#D0E8F9;}
</style>
<g>
	<g>
		<path class="st0" d="M192,72.5l-1.2,0.1c0,0-8.4,0.6-8.4,11.9v23.2c-0.1,1.6-1,5.1-7.1,5.1l-0.8,0V65.3h1.1c6.2,0,6.1,4.4,6.1,4.4
			v0.4c1.2-1.6,2.8-2.9,4.7-3.9c2.5-1.3,4.4-1.9,7-1.8h1h2v3.1C196.3,67.5,196.7,72,192,72.5"/>
		<path class="st0" d="M100.8,71.7c-4.5,0-8.3,1.6-11.5,5c-3.4,3.7-5,7.8-5,12.7c0.1,4.5,1.7,8.6,5,11.9c3.2,3.3,7,4.9,11.6,4.9
			c4.7,0,8.6-1.6,11.9-5c3.4-3.4,5-7.3,5.1-12c0.1-4.7-1.4-8.7-4.7-12.2c-3.2-3.5-7-5.3-11.5-5.5C101.4,71.7,101.1,71.7,100.8,71.7
			 M77.5,128.8l-0.8,0V89c0-6.8,2.5-12.7,7.4-17.6c5-5,10.9-7.4,17.7-7.1c6.5,0.2,12.2,2.7,16.7,7.5c4.6,4.8,6.9,10.6,6.9,17.2
			c0,6.9-2.5,12.9-7.4,17.8c-4.7,4.7-10.3,7.1-16.7,7.1c-0.3,0-0.6,0-0.9,0c-6.3-0.2-11.8-2.6-16.3-7.1v17
			C84,125.3,83.2,128.8,77.5,128.8"/>
		<path class="st0" d="M216.4,71.5c-4.7,0-8.7,1.6-12,5c-3.3,3.3-5,7.2-5,12c-0.1,4.7,1.5,8.8,4.6,12.3c3.1,3.4,7,5.3,11.5,5.5
			c0.3,0,0.6,0,0.9,0c4.5,0,8.2-1.6,11.5-5c3.5-3.6,5.1-7.8,5-12.8c-0.1-4.5-1.7-8.6-5-11.9C224.8,73.2,220.9,71.5,216.4,71.5
			 M216.2,113.7c-0.3,0-0.6,0-0.9,0c-6.6-0.3-12.2-2.8-16.7-7.6c-4.6-4.8-6.9-10.6-6.9-17.2c0-6.9,2.5-12.9,7.4-17.8
			c4.9-4.9,10.8-7.3,17.7-7.1c6.7,0.2,12.4,2.8,16.9,7.6c4.7,4.8,6.9,10.6,6.6,17.1v23.7h-0.7c-5.9,0-6.6-3.9-6.7-5.1v-1
			C228.4,111.3,222.7,113.7,216.2,113.7"/>
		<path class="st0" d="M149.8,113.8c-1.5,0-3-0.1-4.4-0.4c-4.1-0.8-7.7-2.7-10.7-5.8c-3.2-3.3-5.1-7.4-5.7-12.1
			c-0.2-1.2-0.2-2.3-0.2-3.3V65.3h1.5c1.7,0.1,5.8,1,6.1,6.6l0,21c0,3.7,1.3,6.8,4.1,9.5c2.6,2.5,5.5,3.8,8.8,3.9l0.2,0
			c0.2,0,0.4,0,0.5,0c0.1,0,0.2,0,0.2,0c3.4-0.1,6.3-1.4,8.8-3.9c2.7-2.7,4.1-5.8,4.1-9.5v-21c0.4-5.7,4.4-6.6,6.1-6.7l1.5,0v26.9
			c0,6.1-2,11.3-5.9,15.4c-3,3.1-6.6,5-10.7,5.8C152.8,113.7,151.3,113.8,149.8,113.8"/>
		<path class="st0" d="M11.5,84.7H45c-0.9-3.7-2.8-6.8-5.6-9.2c-3-2.5-6.7-3.9-10.9-3.9l-0.4,0c-4,0-7.7,1.3-10.8,3.8
			C14.4,77.8,12.5,80.8,11.5,84.7 M48.5,97.1h3c-1.7,5.1-4.8,9.2-9,12.1c-4.2,3-8.8,4.5-14,4.6h-0.3c-6.3,0-12-2.4-16.9-7.1
			c-5.1-5-7.6-10.6-7.6-17.4C3.5,82.3,6,76.2,11.1,71.1c5.2-5.2,11.4-7.6,18.4-7.1c6.3,0.4,11.8,3,16.4,7.8c4.5,4.7,6.7,10.1,6.7,16
			v4H11.4c0.6,4.1,2.5,7.6,5.5,10.2c3.3,2.9,7.1,4.3,11.4,4.3l0.3,0c5.2-0.1,9.2-1.8,12.2-5.4C40.9,100.8,43.6,96.7,48.5,97.1"/>
		<path class="st0" d="M237.5,66.6h0.6c0.5,0,0.9,0,0.9-0.6c0-0.5-0.4-0.5-0.7-0.5h-0.7V66.6z M237,65.1h1.3c0.8,0,1.2,0.3,1.2,1
			c0,0.6-0.4,0.9-0.9,0.9l1,1.5H239l-0.9-1.5h-0.6v1.5H237V65.1z M238.1,69.3c1.3,0,2.4-1.1,2.4-2.5c0-1.4-1.1-2.5-2.4-2.5
			c-1.4,0-2.4,1.1-2.4,2.5C235.7,68.2,236.7,69.3,238.1,69.3 M238.1,63.9c1.6,0,2.9,1.3,2.9,2.9c0,1.7-1.3,2.9-2.9,2.9
			c-1.6,0-3-1.3-3-2.9C235.2,65.2,236.5,63.9,238.1,63.9"/>
		<g>
			<g>
				
					<radialGradient id="SVGID_1_" cx="93.1058" cy="135.2467" r="12.967" gradientTransform="matrix(0.9654 -0.3746 0.2082 0.9551 -56.1183 -0.8076)" gradientUnits="userSpaceOnUse">
					<stop  offset="0" style="stop-color:#FFFFFF"/>
					<stop  offset="0.4551" style="stop-color:#7DC2EE"/>
					<stop  offset="1" style="stop-color:#63A5DC"/>
				</radialGradient>
				<path class="st1" d="M70.6,77.1c-1.8,0.8-3.9,2.2-5.9,3.9c-2,1.7-3.9,3.8-5.5,6.1c-3.1,4.6-4.7,10-2.2,14.8
					c1.7,3.3,5.1,4.4,8.3,3.6c3.2-0.7,6.2-3.3,7-7.4c1-4.7-0.4-8-1.6-11.2C69.5,83.9,68.6,80.9,70.6,77.1z"/>
				
					<linearGradient id="SVGID_2_" gradientUnits="userSpaceOnUse" x1="84.2202" y1="135.332" x2="103.2944" y2="135.6254" gradientTransform="matrix(0.9654 -0.3746 0.2082 0.9551 -56.1183 -0.8076)">
					<stop  offset="0" style="stop-color:#FFFFFF"/>
					<stop  offset="0.4551" style="stop-color:#7CC1ED"/>
					<stop  offset="0.4615" style="stop-color:#7CC1ED"/>
					<stop  offset="1" style="stop-color:#61A3DA"/>
				</linearGradient>
				<path class="st2" d="M64.7,81.1c2-1.7,4-3,5.8-3.6c-1.9,3.8-0.9,6.7,0.2,9.8c1.1,3.1,2.5,6.4,1.5,10.9c-0.9,4-3.8,6.5-6.9,7.2
					c-3.1,0.7-6.4-0.3-8.1-3.5c-1-1.8-1.3-3.7-1.2-5.6c0.1-3.1,1.4-6.2,3.3-9C60.8,84.9,62.7,82.8,64.7,81.1z"/>
				
					<linearGradient id="SVGID_3_" gradientUnits="userSpaceOnUse" x1="84.5873" y1="135.2032" x2="103.319" y2="135.7796" gradientTransform="matrix(0.9654 -0.3746 0.2082 0.9551 -56.1183 -0.8076)">
					<stop  offset="0" style="stop-color:#FFFFFF"/>
					<stop  offset="0.4551" style="stop-color:#7BC0ED"/>
					<stop  offset="0.4615" style="stop-color:#7BC0ED"/>
					<stop  offset="1" style="stop-color:#60A0D8"/>
				</linearGradient>
				<path class="st3" d="M64.7,81.2c2-1.7,4-2.9,5.6-3.3c-1.9,3.8-0.8,6.7,0.3,9.7c1.1,3,2.4,6.3,1.4,10.7c-0.9,3.9-3.7,6.4-6.8,7.1
					c-3.1,0.7-6.3-0.3-8-3.4c-1-1.8-1.4-3.7-1.3-5.6c0.1-3,1.4-6.1,3.2-9C60.8,85.1,62.7,82.9,64.7,81.2z"/>
				
					<linearGradient id="SVGID_4_" gradientUnits="userSpaceOnUse" x1="84.9462" y1="135.0727" x2="103.3257" y2="135.9213" gradientTransform="matrix(0.9654 -0.3746 0.2082 0.9551 -56.1183 -0.8076)">
					<stop  offset="0" style="stop-color:#FFFFFF"/>
					<stop  offset="0.4551" style="stop-color:#7ABFEC"/>
					<stop  offset="0.4615" style="stop-color:#7ABFEC"/>
					<stop  offset="1" style="stop-color:#5E9ED6"/>
				</linearGradient>
				<path class="st4" d="M64.7,81.2c2-1.7,3.9-2.8,5.5-3c-1.8,3.8-0.7,6.6,0.4,9.6c1.1,3,2.3,6.2,1.3,10.5c-0.9,3.8-3.7,6.2-6.7,6.9
					c-3,0.7-6.2-0.3-7.9-3.3c-1-1.7-1.4-3.6-1.3-5.5c0.1-3,1.3-6.1,3.1-8.9C60.8,85.2,62.6,83,64.7,81.2z"/>
				
					<linearGradient id="SVGID_5_" gradientUnits="userSpaceOnUse" x1="85.2964" y1="134.9446" x2="103.3154" y2="136.0545" gradientTransform="matrix(0.9654 -0.3746 0.2082 0.9551 -56.1183 -0.8076)">
					<stop  offset="0" style="stop-color:#FFFFFF"/>
					<stop  offset="0.4551" style="stop-color:#79BEEB"/>
					<stop  offset="0.4615" style="stop-color:#79BDEB"/>
					<stop  offset="1" style="stop-color:#5D9CD4"/>
				</linearGradient>
				<path class="st5" d="M64.7,81.3c2-1.7,3.9-2.7,5.4-2.7c-1.7,3.7-0.5,6.5,0.5,9.4c1.1,2.9,2.2,6.1,1.3,10.3
					c-0.9,3.7-3.6,6.1-6.6,6.8c-3,0.7-6.1-0.3-7.7-3.2c-1-1.7-1.4-3.5-1.4-5.4c0.1-2.9,1.3-6,3-8.8C60.7,85.4,62.6,83.2,64.7,81.3z"
					/>
				
					<linearGradient id="SVGID_6_" gradientUnits="userSpaceOnUse" x1="85.6273" y1="134.8205" x2="103.4076" y2="136.1905" gradientTransform="matrix(0.9654 -0.3746 0.2082 0.9551 -56.1183 -0.8076)">
					<stop  offset="0" style="stop-color:#FFFFFF"/>
					<stop  offset="0.4551" style="stop-color:#78BDEA"/>
					<stop  offset="0.4615" style="stop-color:#78BCEA"/>
					<stop  offset="1" style="stop-color:#5B99D2"/>
				</linearGradient>
				<path class="st6" d="M64.7,81.4c2-1.7,3.8-2.6,5.3-2.5c-1.7,3.7-0.4,6.5,0.7,9.3c1,2.9,2.2,6,1.2,10.1c-0.8,3.6-3.5,5.9-6.4,6.7
					c-2.9,0.7-6-0.2-7.6-3.1c-1-1.7-1.4-3.5-1.4-5.3c0.1-2.9,1.2-5.9,2.9-8.8C60.7,85.5,62.6,83.3,64.7,81.4z"/>
				
					<linearGradient id="SVGID_7_" gradientUnits="userSpaceOnUse" x1="85.9351" y1="134.7007" x2="103.6901" y2="136.3438" gradientTransform="matrix(0.9654 -0.3746 0.2082 0.9551 -56.1183 -0.8076)">
					<stop  offset="0" style="stop-color:#FFFFFF"/>
					<stop  offset="0.4551" style="stop-color:#78BBEA"/>
					<stop  offset="0.4615" style="stop-color:#77BBEA"/>
					<stop  offset="1" style="stop-color:#5A97D1"/>
				</linearGradient>
				<path class="st7" d="M64.7,81.5c2-1.7,3.8-2.6,5.2-2.2c-1.6,3.7-0.2,6.4,0.8,9.2c1,2.8,2.1,5.9,1.1,9.9
					c-0.8,3.5-3.5,5.8-6.3,6.5c-2.9,0.7-5.8-0.2-7.5-3c-1-1.6-1.5-3.4-1.4-5.2c0-2.8,1.1-5.8,2.8-8.7C60.7,85.7,62.5,83.4,64.7,81.5
					z"/>
				
					<linearGradient id="SVGID_8_" gradientUnits="userSpaceOnUse" x1="86.2406" y1="134.5874" x2="103.9651" y2="136.5029" gradientTransform="matrix(0.9654 -0.3746 0.2082 0.9551 -56.1183 -0.8076)">
					<stop  offset="0" style="stop-color:#FFFFFF"/>
					<stop  offset="0.4551" style="stop-color:#77BAE9"/>
					<stop  offset="0.4615" style="stop-color:#76BAE9"/>
					<stop  offset="1" style="stop-color:#5895CF"/>
				</linearGradient>
				<path class="st8" d="M64.7,81.6c2.1-1.7,3.8-2.5,5.1-1.9c-1.6,3.6-0.1,6.3,0.9,9.1c1,2.8,2,5.8,1,9.7c-0.8,3.4-3.4,5.7-6.2,6.4
					c-2.8,0.7-5.7-0.2-7.4-2.8c-1-1.6-1.5-3.3-1.5-5.2c0-2.8,1.1-5.8,2.7-8.6C60.7,85.8,62.5,83.5,64.7,81.6z"/>
				
					<linearGradient id="SVGID_9_" gradientUnits="userSpaceOnUse" x1="86.5443" y1="134.4812" x2="104.2323" y2="136.6685" gradientTransform="matrix(0.9654 -0.3746 0.2082 0.9551 -56.1183 -0.8076)">
					<stop  offset="0" style="stop-color:#FFFFFF"/>
					<stop  offset="0.4551" style="stop-color:#76B9E8"/>
					<stop  offset="0.4615" style="stop-color:#75B9E8"/>
					<stop  offset="1" style="stop-color:#5792CD"/>
				</linearGradient>
				<path class="st9" d="M64.6,81.7c2.1-1.7,3.7-2.4,5-1.6c-1.5,3.6,0.1,6.3,1,9c1,2.7,1.9,5.7,0.9,9.5c-0.8,3.3-3.4,5.5-6.1,6.2
					c-2.8,0.7-5.6-0.2-7.2-2.7c-1-1.5-1.5-3.2-1.5-5.1c0-2.7,1-5.7,2.6-8.5C60.7,86,62.4,83.6,64.6,81.7z"/>
				
					<linearGradient id="SVGID_10_" gradientUnits="userSpaceOnUse" x1="86.8462" y1="134.3826" x2="104.4916" y2="136.8407" gradientTransform="matrix(0.9654 -0.3746 0.2082 0.9551 -56.1183 -0.8076)">
					<stop  offset="0" style="stop-color:#FFFFFF"/>
					<stop  offset="0.4551" style="stop-color:#75B8E8"/>
					<stop  offset="0.4615" style="stop-color:#74B8E7"/>
					<stop  offset="1" style="stop-color:#5590CB"/>
				</linearGradient>
				<path class="st10" d="M64.6,81.8c2.1-1.7,3.7-2.3,4.9-1.3c-1.4,3.6,0.2,6.2,1.1,8.8c0.9,2.7,1.8,5.6,0.9,9.3
					c-0.8,3.3-3.3,5.4-6,6.1c-2.7,0.7-5.5-0.1-7.1-2.6c-1-1.5-1.6-3.2-1.6-5c0-2.7,0.9-5.6,2.5-8.5C60.7,86.1,62.4,83.7,64.6,81.8z"
					/>
				
					<linearGradient id="SVGID_11_" gradientUnits="userSpaceOnUse" x1="87.1467" y1="134.2919" x2="104.7428" y2="137.0197" gradientTransform="matrix(0.9654 -0.3746 0.2082 0.9551 -56.1183 -0.8076)">
					<stop  offset="0" style="stop-color:#FFFFFF"/>
					<stop  offset="0.4551" style="stop-color:#74B7E7"/>
					<stop  offset="0.4615" style="stop-color:#73B7E7"/>
					<stop  offset="1" style="stop-color:#548DC9"/>
				</linearGradient>
				<path class="st11" d="M64.6,81.9c2.1-1.7,3.6-2.2,4.8-1.1c-1.4,3.5,0.3,6.1,1.2,8.7c0.9,2.6,1.7,5.5,0.8,9.1
					c-0.8,3.2-3.2,5.3-5.9,5.9c-2.6,0.7-5.4-0.1-7-2.5c-1-1.5-1.6-3.1-1.6-4.9c0-2.6,0.9-5.6,2.4-8.4C60.6,86.3,62.4,83.8,64.6,81.9
					z"/>
				
					<linearGradient id="SVGID_12_" gradientUnits="userSpaceOnUse" x1="87.4459" y1="134.2093" x2="104.9858" y2="137.2053" gradientTransform="matrix(0.9654 -0.3746 0.2082 0.9551 -56.1183 -0.8076)">
					<stop  offset="0" style="stop-color:#FFFFFF"/>
					<stop  offset="0.4551" style="stop-color:#73B6E6"/>
					<stop  offset="0.4615" style="stop-color:#72B6E6"/>
					<stop  offset="1" style="stop-color:#528BC7"/>
				</linearGradient>
				<path class="st12" d="M64.6,82c2.1-1.6,3.6-2.1,4.7-0.8c-1.3,3.5,0.5,6.1,1.3,8.6c0.9,2.6,1.7,5.3,0.7,8.9
					c-0.8,3.1-3.2,5.1-5.7,5.8c-2.6,0.7-5.2-0.1-6.8-2.4c-1-1.4-1.6-3-1.6-4.8c0-2.6,0.8-5.5,2.2-8.3C60.6,86.4,62.3,84,64.6,82z"/>
				
					<linearGradient id="SVGID_13_" gradientUnits="userSpaceOnUse" x1="87.7439" y1="134.1349" x2="105.2203" y2="137.3974" gradientTransform="matrix(0.9654 -0.3746 0.2082 0.9551 -56.1183 -0.8076)">
					<stop  offset="0" style="stop-color:#FFFFFF"/>
					<stop  offset="0.4551" style="stop-color:#72B5E5"/>
					<stop  offset="0.4615" style="stop-color:#71B4E5"/>
					<stop  offset="1" style="stop-color:#5189C5"/>
				</linearGradient>
				<path class="st13" d="M64.6,82.1c2.1-1.6,3.5-2,4.6-0.5c-1.2,3.5,0.6,6,1.4,8.5c0.8,2.5,1.6,5.2,0.6,8.6c-0.8,3-3.1,5-5.6,5.6
					c-2.5,0.7-5.1-0.1-6.7-2.3c-1-1.4-1.6-3-1.7-4.8c-0.1-2.5,0.8-5.4,2.1-8.3C60.6,86.6,62.3,84.1,64.6,82.1z"/>
				
					<linearGradient id="SVGID_14_" gradientUnits="userSpaceOnUse" x1="88.0403" y1="134.0688" x2="105.4478" y2="137.5964" gradientTransform="matrix(0.9654 -0.3746 0.2082 0.9551 -56.1183 -0.8076)">
					<stop  offset="0" style="stop-color:#FFFFFF"/>
					<stop  offset="0.4551" style="stop-color:#71B4E5"/>
					<stop  offset="0.4615" style="stop-color:#70B3E4"/>
					<stop  offset="1" style="stop-color:#4F86C3"/>
				</linearGradient>
				<path class="st14" d="M64.6,82.2c2.1-1.6,3.5-1.9,4.5-0.2c-1.2,3.4,0.8,5.9,1.6,8.3c0.8,2.5,1.5,5.1,0.5,8.4
					c-0.8,2.9-3.1,4.8-5.5,5.5c-2.5,0.7-5-0.1-6.6-2.2c-1-1.4-1.7-2.9-1.7-4.7c-0.1-2.4,0.7-5.3,2-8.2
					C60.6,86.7,62.2,84.2,64.6,82.2z"/>
				
					<linearGradient id="SVGID_15_" gradientUnits="userSpaceOnUse" x1="88.3337" y1="134.0108" x2="105.6652" y2="137.8013" gradientTransform="matrix(0.9654 -0.3746 0.2082 0.9551 -56.1183 -0.8076)">
					<stop  offset="0" style="stop-color:#FFFFFF"/>
					<stop  offset="0.4551" style="stop-color:#70B3E4"/>
					<stop  offset="0.4615" style="stop-color:#6FB2E4"/>
					<stop  offset="1" style="stop-color:#4E84C1"/>
				</linearGradient>
				<path class="st15" d="M64.6,82.3c2.1-1.6,3.4-1.9,4.4,0.1c-1.1,3.4,0.9,5.9,1.7,8.2c0.8,2.4,1.4,5,0.5,8.2
					c-0.8,2.8-3,4.7-5.4,5.4c-2.4,0.7-4.9,0-6.4-2c-1-1.3-1.7-2.8-1.8-4.6c-0.1-2.4,0.6-5.3,1.9-8.1C60.6,86.9,62.2,84.3,64.6,82.3z
					"/>
				
					<linearGradient id="SVGID_16_" gradientUnits="userSpaceOnUse" x1="88.6236" y1="133.9607" x2="105.8741" y2="138.0124" gradientTransform="matrix(0.9654 -0.3746 0.2082 0.9551 -56.1183 -0.8076)">
					<stop  offset="0" style="stop-color:#FFFFFF"/>
					<stop  offset="0.4551" style="stop-color:#6FB2E3"/>
					<stop  offset="0.4615" style="stop-color:#6EB1E3"/>
					<stop  offset="1" style="stop-color:#4C82BF"/>
				</linearGradient>
				<path class="st16" d="M64.5,82.4c2.1-1.6,3.4-1.8,4.3,0.4c-1.1,3.4,1.1,5.8,1.8,8.1c0.8,2.4,1.3,4.9,0.4,8
					c-0.8,2.7-2.9,4.6-5.3,5.2c-2.4,0.7-4.8,0-6.3-1.9c-1-1.3-1.7-2.8-1.8-4.5c-0.1-2.3,0.6-5.2,1.8-8.1
					C60.5,87,62.2,84.4,64.5,82.4z"/>
				
					<linearGradient id="SVGID_17_" gradientUnits="userSpaceOnUse" x1="88.9095" y1="133.9182" x2="106.0746" y2="138.2295" gradientTransform="matrix(0.9654 -0.3746 0.2082 0.9551 -56.1183 -0.8076)">
					<stop  offset="0" style="stop-color:#FFFFFF"/>
					<stop  offset="0.4551" style="stop-color:#6FB0E3"/>
					<stop  offset="0.4615" style="stop-color:#6EB0E2"/>
					<stop  offset="1" style="stop-color:#4B7FBE"/>
				</linearGradient>
				<path class="st17" d="M64.5,82.5c2.1-1.6,3.4-1.7,4.2,0.6c-1,3.3,1.2,5.7,1.9,8c0.7,2.3,1.2,4.8,0.3,7.8
					c-0.8,2.6-2.9,4.4-5.2,5.1c-2.3,0.7-4.7,0-6.2-1.8c-1-1.2-1.8-2.7-1.8-4.4c-0.1-2.3,0.5-5.1,1.7-8
					C60.5,87.1,62.1,84.5,64.5,82.5z"/>
				
					<linearGradient id="SVGID_18_" gradientUnits="userSpaceOnUse" x1="89.1904" y1="133.8831" x2="106.2669" y2="138.4525" gradientTransform="matrix(0.9654 -0.3746 0.2082 0.9551 -56.1183 -0.8076)">
					<stop  offset="0" style="stop-color:#FFFFFF"/>
					<stop  offset="0.4551" style="stop-color:#6EAFE2"/>
					<stop  offset="0.4615" style="stop-color:#6DAFE1"/>
					<stop  offset="1" style="stop-color:#497DBC"/>
				</linearGradient>
				<path class="st18" d="M64.5,82.5c2.1-1.6,3.3-1.6,4.1,0.9c-0.9,3.3,1.3,5.7,2,7.8c0.7,2.3,1.2,4.7,0.2,7.6
					c-0.8,2.5-2.8,4.3-5,4.9c-2.3,0.7-4.5,0.1-6-1.7c-1-1.2-1.8-2.6-1.9-4.3c-0.1-2.2,0.4-5.1,1.6-7.9
					C60.5,87.3,62.1,84.7,64.5,82.5z"/>
				
					<linearGradient id="SVGID_19_" gradientUnits="userSpaceOnUse" x1="89.4656" y1="133.855" x2="106.4514" y2="138.6812" gradientTransform="matrix(0.9654 -0.3746 0.2082 0.9551 -56.1183 -0.8076)">
					<stop  offset="0" style="stop-color:#FFFFFF"/>
					<stop  offset="0.4551" style="stop-color:#6DAEE1"/>
					<stop  offset="0.4615" style="stop-color:#6CAEE1"/>
					<stop  offset="1" style="stop-color:#487BBA"/>
				</linearGradient>
				<path class="st19" d="M64.5,82.6c2.1-1.6,3.3-1.5,4,1.2c-0.9,3.3,1.5,5.6,2.1,7.7c0.7,2.2,1.1,4.6,0.2,7.4
					c-0.8,2.4-2.8,4.1-4.9,4.8c-2.2,0.7-4.4,0.1-5.9-1.6c-1-1.2-1.8-2.6-1.9-4.3c-0.2-2.2,0.4-5,1.5-7.8
					C60.5,87.4,62.1,84.8,64.5,82.6z"/>
				
					<linearGradient id="SVGID_20_" gradientUnits="userSpaceOnUse" x1="89.7339" y1="133.8335" x2="106.6283" y2="138.9158" gradientTransform="matrix(0.9654 -0.3746 0.2082 0.9551 -56.1183 -0.8076)">
					<stop  offset="0" style="stop-color:#FFFFFF"/>
					<stop  offset="0.4551" style="stop-color:#6CADE1"/>
					<stop  offset="0.4615" style="stop-color:#6BADE0"/>
					<stop  offset="1" style="stop-color:#4678B8"/>
				</linearGradient>
				<path class="st20" d="M64.5,82.7c2.1-1.6,3.2-1.4,3.8,1.5c-0.8,3.2,1.6,5.5,2.2,7.6c0.7,2.2,1,4.5,0.1,7.2
					c-0.8,2.4-2.7,4-4.8,4.6c-2.2,0.6-4.3,0.1-5.8-1.5c-1.1-1.1-1.8-2.5-2-4.2c-0.2-2.1,0.3-4.9,1.4-7.8
					C60.5,87.6,62,84.9,64.5,82.7z"/>
				
					<linearGradient id="SVGID_21_" gradientUnits="userSpaceOnUse" x1="89.994" y1="133.8178" x2="106.7985" y2="139.1562" gradientTransform="matrix(0.9654 -0.3746 0.2082 0.9551 -56.1183 -0.8076)">
					<stop  offset="0" style="stop-color:#FFFFFF"/>
					<stop  offset="0.4551" style="stop-color:#6BACE0"/>
					<stop  offset="0.4615" style="stop-color:#6AABDF"/>
					<stop  offset="1" style="stop-color:#4576B6"/>
				</linearGradient>
				<path class="st21" d="M64.5,82.8c2.1-1.6,3.2-1.3,3.7,1.8c-0.7,3.2,1.8,5.5,2.4,7.5c0.6,2.1,0.9,4.4,0,7
					c-0.8,2.3-2.6,3.9-4.7,4.5c-2.1,0.6-4.2,0.1-5.7-1.3c-1.1-1.1-1.9-2.4-2-4.1c-0.2-2.1,0.2-4.9,1.3-7.7
					C60.4,87.7,62,85,64.5,82.8z"/>
				
					<linearGradient id="SVGID_22_" gradientUnits="userSpaceOnUse" x1="90.2447" y1="133.8073" x2="106.9627" y2="139.4027" gradientTransform="matrix(0.9654 -0.3746 0.2082 0.9551 -56.1183 -0.8076)">
					<stop  offset="0" style="stop-color:#FFFFFF"/>
					<stop  offset="0.4551" style="stop-color:#6AABDF"/>
					<stop  offset="0.4615" style="stop-color:#69AADE"/>
					<stop  offset="1" style="stop-color:#4374B4"/>
				</linearGradient>
				<path class="st22" d="M64.5,82.9c2.1-1.6,3.1-1.2,3.6,2.1c-0.7,3.2,1.9,5.4,2.5,7.3c0.6,2.1,0.8,4.3-0.1,6.8
					c-0.8,2.2-2.6,3.7-4.6,4.3c-2.1,0.6-4.1,0.2-5.5-1.2c-1.1-1.1-1.9-2.4-2-4c-0.2-2,0.2-4.8,1.2-7.6
					C60.4,87.9,61.9,85.1,64.5,82.9z"/>
				
					<linearGradient id="SVGID_23_" gradientUnits="userSpaceOnUse" x1="90.4845" y1="133.8012" x2="107.1219" y2="139.6557" gradientTransform="matrix(0.9654 -0.3746 0.2082 0.9551 -56.1183 -0.8076)">
					<stop  offset="0" style="stop-color:#FFFFFF"/>
					<stop  offset="0.4551" style="stop-color:#69AADE"/>
					<stop  offset="0.4615" style="stop-color:#68A9DE"/>
					<stop  offset="1" style="stop-color:#4271B2"/>
				</linearGradient>
				<path class="st23" d="M64.4,83c2.2-1.6,3.1-1.2,3.5,2.3c-0.6,3.1,2,5.3,2.6,7.2c0.6,2,0.7,4.2-0.2,6.5c-0.8,2.1-2.5,3.6-4.5,4.2
					c-2,0.6-4,0.2-5.4-1.1c-1.1-1-1.9-2.3-2.1-3.9c-0.2-2,0.1-4.7,1.1-7.6C60.4,88,61.9,85.2,64.4,83z"/>
				
					<linearGradient id="SVGID_24_" gradientUnits="userSpaceOnUse" x1="90.7121" y1="133.7986" x2="107.2773" y2="139.9156" gradientTransform="matrix(0.9654 -0.3746 0.2082 0.9551 -56.1183 -0.8076)">
					<stop  offset="0" style="stop-color:#FFFFFF"/>
					<stop  offset="0.4551" style="stop-color:#68A9DE"/>
					<stop  offset="0.4615" style="stop-color:#67A8DD"/>
					<stop  offset="1" style="stop-color:#406FB0"/>
				</linearGradient>
				<path class="st24" d="M64.4,83.1c2.2-1.6,3-1.1,3.4,2.6c-0.6,3.1,2.2,5.3,2.7,7.1c0.6,2,0.6,4.1-0.2,6.3c-0.8,2-2.5,3.4-4.3,4.1
					c-1.9,0.6-3.9,0.2-5.3-1c-1.1-1-1.9-2.2-2.1-3.9c-0.2-1.9,0-4.6,0.9-7.5C60.4,88.2,61.9,85.4,64.4,83.1z"/>
				
					<linearGradient id="SVGID_25_" gradientUnits="userSpaceOnUse" x1="90.9263" y1="133.7987" x2="107.43" y2="140.183" gradientTransform="matrix(0.9654 -0.3746 0.2082 0.9551 -56.1183 -0.8076)">
					<stop  offset="0" style="stop-color:#FFFFFF"/>
					<stop  offset="0.4551" style="stop-color:#67A8DD"/>
					<stop  offset="0.4615" style="stop-color:#66A7DC"/>
					<stop  offset="1" style="stop-color:#3F6CAE"/>
				</linearGradient>
				<path class="st25" d="M64.4,83.2c2.2-1.6,3-1,3.3,2.9c-0.5,3.1,2.3,5.2,2.8,7c0.5,1.9,0.6,4-0.3,6.1c-0.8,1.9-2.4,3.3-4.2,3.9
					c-1.9,0.6-3.8,0.3-5.1-0.9c-1.1-0.9-2-2.2-2.2-3.8c-0.2-1.9,0-4.6,0.8-7.4C60.3,88.3,61.8,85.5,64.4,83.2z"/>
				
					<linearGradient id="SVGID_26_" gradientUnits="userSpaceOnUse" x1="91.1266" y1="133.8008" x2="107.5812" y2="140.4588" gradientTransform="matrix(0.9654 -0.3746 0.2082 0.9551 -56.1183 -0.8076)">
					<stop  offset="0" style="stop-color:#FFFFFF"/>
					<stop  offset="0.4551" style="stop-color:#66A7DC"/>
					<stop  offset="0.4615" style="stop-color:#65A6DB"/>
					<stop  offset="1" style="stop-color:#3D6AAC"/>
				</linearGradient>
				<path class="st26" d="M64.4,83.3c2.2-1.6,3-0.9,3.2,3.2c-0.4,3,2.5,5.2,2.9,6.8c0.5,1.9,0.5,3.9-0.4,5.9
					c-0.8,1.8-2.3,3.2-4.1,3.8c-1.8,0.6-3.7,0.3-5-0.8c-1.1-0.9-2-2.1-2.2-3.7c-0.3-1.8-0.1-4.5,0.7-7.3
					C60.3,88.5,61.8,85.6,64.4,83.3z"/>
				
					<linearGradient id="SVGID_27_" gradientUnits="userSpaceOnUse" x1="91.313" y1="133.8044" x2="107.7318" y2="140.7437" gradientTransform="matrix(0.9654 -0.3746 0.2082 0.9551 -56.1183 -0.8076)">
					<stop  offset="0" style="stop-color:#FFFFFF"/>
					<stop  offset="0.4551" style="stop-color:#66A5DC"/>
					<stop  offset="0.4615" style="stop-color:#64A5DB"/>
					<stop  offset="1" style="stop-color:#3C68AB"/>
				</linearGradient>
				<path class="st27" d="M64.4,83.4c2.2-1.5,2.9-0.8,3.1,3.5c-0.4,3,2.6,5.1,3,6.7c0.5,1.8,0.4,3.8-0.5,5.7c-0.8,1.7-2.3,3-4,3.6
					c-1.8,0.6-3.6,0.3-4.9-0.7c-1.1-0.8-2-2-2.2-3.6c-0.3-1.8-0.2-4.4,0.6-7.3C60.3,88.6,61.7,85.7,64.4,83.4z"/>
				
					<linearGradient id="SVGID_28_" gradientUnits="userSpaceOnUse" x1="91.4858" y1="133.8093" x2="107.8824" y2="141.0384" gradientTransform="matrix(0.9654 -0.3746 0.2082 0.9551 -56.1183 -0.8076)">
					<stop  offset="0" style="stop-color:#FFFFFF"/>
					<stop  offset="0.4551" style="stop-color:#65A4DB"/>
					<stop  offset="0.4615" style="stop-color:#63A4DA"/>
					<stop  offset="1" style="stop-color:#3A65A9"/>
				</linearGradient>
				<path class="st28" d="M64.4,83.5c2.2-1.5,2.9-0.7,3,3.8c-0.3,3,2.7,5,3.1,6.6c0.5,1.8,0.3,3.7-0.6,5.5c-0.8,1.6-2.2,2.9-3.9,3.5
					c-1.7,0.6-3.4,0.4-4.7-0.5c-1.1-0.8-2-2-2.3-3.5c-0.3-1.7-0.2-4.4,0.5-7.2C60.3,88.8,61.7,85.8,64.4,83.5z"/>
				
					<linearGradient id="SVGID_29_" gradientUnits="userSpaceOnUse" x1="91.646" y1="133.8158" x2="108.0325" y2="141.3435" gradientTransform="matrix(0.9654 -0.3746 0.2082 0.9551 -56.1183 -0.8076)">
					<stop  offset="0" style="stop-color:#FFFFFF"/>
					<stop  offset="0.4551" style="stop-color:#64A3DA"/>
					<stop  offset="0.4615" style="stop-color:#62A2D9"/>
					<stop  offset="1" style="stop-color:#3963A7"/>
				</linearGradient>
				<path class="st29" d="M64.4,83.6c2.2-1.5,2.8-0.6,2.9,4c-0.2,2.9,2.9,5,3.3,6.5c0.4,1.7,0.2,3.6-0.6,5.3
					c-0.8,1.5-2.2,2.8-3.8,3.3c-1.7,0.6-3.3,0.4-4.6-0.4c-1.2-0.7-2.1-1.9-2.3-3.5c-0.3-1.7-0.3-4.3,0.4-7.1
					C60.2,88.9,61.7,85.9,64.4,83.6z"/>
				
					<linearGradient id="SVGID_30_" gradientUnits="userSpaceOnUse" x1="91.7951" y1="133.8242" x2="108.1846" y2="141.6608" gradientTransform="matrix(0.9654 -0.3746 0.2082 0.9551 -56.1183 -0.8076)">
					<stop  offset="0" style="stop-color:#FFFFFF"/>
					<stop  offset="0.4551" style="stop-color:#63A2D9"/>
					<stop  offset="0.4615" style="stop-color:#61A1D8"/>
					<stop  offset="1" style="stop-color:#3761A5"/>
				</linearGradient>
				<path class="st30" d="M64.3,83.7c2.2-1.5,2.8-0.6,2.8,4.3c-0.2,2.9,3,4.9,3.4,6.3c0.4,1.7,0.1,3.5-0.7,5.1
					c-0.8,1.5-2.1,2.6-3.7,3.2c-1.6,0.6-3.2,0.4-4.5-0.3c-1.2-0.7-2.1-1.8-2.4-3.4c-0.3-1.6-0.4-4.2,0.3-7.1
					C60.2,89,61.6,86,64.3,83.7z"/>
				
					<linearGradient id="SVGID_31_" gradientUnits="userSpaceOnUse" x1="91.9341" y1="133.8352" x2="108.3375" y2="141.9906" gradientTransform="matrix(0.9654 -0.3746 0.2082 0.9551 -56.1183 -0.8076)">
					<stop  offset="0" style="stop-color:#FFFFFF"/>
					<stop  offset="0.4551" style="stop-color:#62A1D9"/>
					<stop  offset="0.4615" style="stop-color:#60A0D8"/>
					<stop  offset="1" style="stop-color:#365EA3"/>
				</linearGradient>
				<path class="st31" d="M64.3,83.8c2.2-1.5,2.7-0.5,2.7,4.6c-0.1,2.9,3.2,4.8,3.5,6.2c0.4,1.6,0.1,3.4-0.8,4.9
					c-0.8,1.4-2,2.5-3.5,3c-1.6,0.6-3.1,0.5-4.4-0.2c-1.2-0.7-2.1-1.8-2.4-3.3c-0.3-1.6-0.4-4.2,0.2-7
					C60.2,89.2,61.6,86.2,64.3,83.8z"/>
				
					<linearGradient id="SVGID_32_" gradientUnits="userSpaceOnUse" x1="92.0651" y1="133.8499" x2="108.4905" y2="142.3338" gradientTransform="matrix(0.9654 -0.3746 0.2082 0.9551 -56.1183 -0.8076)">
					<stop  offset="0" style="stop-color:#FFFFFF"/>
					<stop  offset="0.4615" style="stop-color:#5F9FD7"/>
					<stop  offset="1" style="stop-color:#345CA1"/>
				</linearGradient>
				<path class="st32" d="M66.9,88.7c-0.1,2.8,3.3,4.8,3.6,6.1c0.7,3-1.3,6.4-4.3,7.6c-1.5,0.6-3,0.5-4.2-0.1s-2.1-1.7-2.4-3.2
					c-0.3-1.5-0.5-4.1,0.1-6.9c0.6-2.8,2-5.9,4.7-8.3C66.5,82.3,67,83.5,66.9,88.7z"/>
			</g>
			
				<radialGradient id="SVGID_33_" cx="112.5735" cy="106.6798" r="15.3105" gradientTransform="matrix(0.9876 -0.1571 0.1571 0.9876 -57.1841 8.0551)" gradientUnits="userSpaceOnUse">
				<stop  offset="0" style="stop-color:#FFFFFF"/>
				<stop  offset="0.4551" style="stop-color:#7CBAE8"/>
				<stop  offset="1" style="stop-color:#487DBC"/>
			</radialGradient>
			<path class="st33" d="M69.6,86.2c5.1,13.4-6,21.8-11.9,16.8c3.9,5.1,13,2.8,14.6-4.8c2-9.3-5.7-13.4-1.7-21.1
				C70.6,77.1,67.7,81.2,69.6,86.2z"/>
			
				<linearGradient id="SVGID_34_" gradientUnits="userSpaceOnUse" x1="105.1431" y1="104.3127" x2="104.6194" y2="114.5773" gradientTransform="matrix(0.9876 -0.1571 0.1571 0.9876 -57.1841 8.0551)">
				<stop  offset="0" style="stop-color:#63A5DC"/>
				<stop  offset="1" style="stop-color:#FFFFFF"/>
			</linearGradient>
			<path class="st34" d="M70,96.5c1.2,3.3-0.9,7-4.5,8.3c-3.6,1.2-7.5-0.5-8.6-3.8c-1.1-3.3,0.9-7,4.5-8.3
				C65,91.5,68.9,93.2,70,96.5z"/>
		</g>
	</g>
	<g>
		<g id="JOROSHO">
			<g>
				<path class="st35" d="M37.4,56.7l10-16.4l-14.6-3.7l-9.4,9.7L32,56.6c0,0,0.1,0,0.1,0.1H37.4z"/>
				<polygon class="st36" points="32.7,36.6 42.9,46.3 23.3,46.2 				"/>
				<path class="st37" d="M43,46.3L32,56.7c1.8,0.2,3.6,0.4,5.6,0.5L43,46.3z"/>
			</g>
			<g>
				<path class="st38" d="M70.1,57.9L55.7,34.5l-8.5,5.7l-4.3,6.2l-4.6,10.9C47.3,58,58,58.3,70.1,57.9z"/>
				<polygon class="st39" points="55.7,34.5 47.2,40.2 43,46.3 				"/>
				<polygon class="st39" points="70.1,57.9 43,46.3 64,48 				"/>
				<path class="st39" d="M43,46.3l-5.4,10.9c3.1,0.3,6.3,0.5,9.8,0.6L43,46.3z"/>
			</g>
			<g>
				<path class="st40" d="M95.4,24.1l-3.6-7.7l-12.9,6.3l-15.3-1.1l-7.9,12.9l13.8,23.4c11.6-0.4,24.5-1.5,38.6-3.7L95.4,24.1z"/>
				<polygon class="st41" points="78.9,22.7 73.6,34 63.6,21.6 				"/>
				<polygon class="st42" points="69,57 73.5,34 55.7,34.5 				"/>
				<path class="st43" d="M95.4,24.1L73.6,34l32.2,20.5c0.8-0.1,1.6-0.2,2.3-0.4L95.4,24.1z"/>
			</g>
			<g>
				<path class="st44" d="M137,50l10.9-25.8L136,5.5l-11.7,4.8l-12.9-9.2L91.8,16.4l16.3,37.8c2.3-0.4,4.6-0.7,7-1.2
					C122.5,51.7,129.9,50.7,137,50z"/>
				<polygon class="st45" points="135.9,5.5 124.2,10.3 127.4,40 147.8,24.1 				"/>
				<polygon class="st46" points="111.3,1.1 127.4,40 95.1,24 91.8,16.4 				"/>
				<path class="st47" d="M132.4,50.5l-5-10.5l-12.4,13c0,0,0.1,0,0.1,0C121,52,126.7,51.2,132.4,50.5z"/>
			</g>
			<g>
				<path class="st48" d="M179.1,48.3l0.4-0.3l8-11.7l-9.8-16.8L166.2,25l-12.5-9.1l-5.8,8.2L136.9,50C152,48.4,166.2,48,179.1,48.3
					z"/>
				<polygon class="st49" points="177.8,19.5 166.2,25 169.8,33.7 				"/>
				<polygon class="st50" points="169.8,33.7 147.8,24.1 153.7,15.9 				"/>
				<polygon class="st51" points="169.8,33.7 185.7,39 179.2,48 				"/>
				<path class="st52" d="M172.6,48.2l-2.8-14.5l-24,15.5C155.2,48.5,164.1,48.2,172.6,48.2z"/>
			</g>
			<g>
				<path class="st53" d="M196.1,40.2l-8.5-3.9L179.2,48l-0.1,0.3c8.1,0.2,15.6,0.6,22.5,1.2L196.1,40.2z"/>
				<path class="st54" d="M196,40.2l-8.5-3.9l5.6,12.6c0.4,0,0.8,0.1,1.2,0.1L196,40.2z"/>
			</g>
			<g>
				<path class="st55" d="M219.9,46.2l-9.4-9.6l-14.4,3.6l5.5,9.3c5.2,0.5,10,1,14.3,1.6L219.9,46.2z"/>
				<polygon class="st56" points="210.5,36.6 199.7,46.4 219.9,46.2 				"/>
				<path class="st57" d="M199.7,46.4l1.8,3.1c0.6,0.1,1.2,0.1,1.8,0.2L199.7,46.4z"/>
			</g>
			<g>
				<path class="st58" d="M221.4,44.4l-5.6,6.7c12.7,1.7,21.6,3.6,25.2,4.5L221.4,44.4z"/>
				<path class="st59" d="M225.3,47.8l-3.9-3.4l-5.6,6.7c1.2,0.2,2.4,0.3,3.5,0.5L225.3,47.8z"/>
				<path class="st60" d="M221.4,44.4l3.9,3.4l14.5,7.4c0.5,0.1,0.9,0.2,1.2,0.3L221.4,44.4z"/>
			</g>
			<g>
				<path class="st61" d="M21.8,44.4L7,52.5c4.9,1.2,13.3,3,24.9,4.2L21.8,44.4z"/>
				<path class="st62" d="M18,47.8l3.9-3.4L6.9,52.5c0.3,0.1,0.6,0.1,0.9,0.2L18,47.8z"/>
				<polygon class="st63" points="21.8,44.4 17.9,47.8 32.1,56.7 				"/>
			</g>
		</g>
		<path class="st64" d="M1.2,50.8c0,0,39.3,19.2,116.5,4.9c65.8-12.2,126.9,0.7,126.9,0.7s-55.3-16.2-126.9-3.8
			C46.2,65,1.2,50.8,1.2,50.8L1.2,50.8z"/>
	</g>
</g>
</svg>
